<?xml version="1.0" standalone="no"?><!DOCTYPE svg PUBLIC "-//W3C//DTD SVG 1.1//EN" "http://www.w3.org/Graphics/SVG/1.1/DTD/svg11.dtd"><svg width="100%" height="100%" viewBox="0 0 2357 2274" version="1.1" xmlns="http://www.w3.org/2000/svg" xmlns:xlink="http://www.w3.org/1999/xlink" xml:space="preserve" style="fill-rule:evenodd;clip-rule:evenodd;stroke-linejoin:round;stroke-miterlimit:1.41421;"><g><path d="M1180.19,133.501c6.751,0.016 13.5,0.086 20.249,0.225c14.53,0.299 29.053,0.897 43.557,1.795c39.586,2.449 79.033,7.136 118.086,14.056c41.019,7.269 81.6,17.002 121.451,29.138c40.829,12.434 80.889,27.388 119.883,44.743c53.028,23.601 104.074,51.644 152.454,83.71c50.24,33.299 97.601,70.93 141.408,112.326c44.529,42.077 85.381,88.04 121.931,137.207c18.487,24.869 35.874,50.554 52.089,76.96c14.071,22.913 27.259,46.368 39.523,70.297c23.273,45.406 43.206,92.522 59.574,140.849c15.403,45.479 27.647,92.027 36.617,139.198c6.15,32.344 10.767,64.979 13.838,97.759c3.231,34.485 4.756,69.128 4.59,103.763c-0.224,46.682 -3.518,93.351 -9.925,139.593c-7.077,51.081 -17.939,101.636 -32.504,151.105c-7.257,24.647 -15.426,49.025 -24.489,73.067c-10.681,28.333 -22.6,56.199 -35.709,83.494c-12.572,26.175 -26.236,51.824 -40.944,76.861c-16.504,28.097 -34.321,55.421 -53.367,81.86c-37.041,51.417 -78.738,99.472 -124.406,143.405c-45.699,43.963 -95.368,83.793 -148.226,118.826c-55.464,36.761 -114.431,68.234 -175.87,93.791c-30.57,12.716 -61.744,23.975 -93.387,33.719c-35.11,10.813 -70.796,19.758 -106.855,26.791c-33.918,6.616 -68.164,11.542 -102.57,14.766c-32.801,3.073 -65.745,4.601 -98.689,4.601c-32.944,0 -65.888,-1.528 -98.689,-4.601c-34.406,-3.224 -68.653,-8.15 -102.57,-14.766c-36.059,-7.033 -71.745,-15.978 -106.856,-26.791c-31.642,-9.745 -62.817,-21.003 -93.386,-33.719c-61.439,-25.557 -120.406,-57.03 -175.87,-93.791c-52.858,-35.033 -102.527,-74.863 -148.226,-118.826c-45.668,-43.933 -87.364,-91.988 -124.406,-143.405c-36.02,-49.999 -67.632,-103.172 -94.311,-158.721c-23.768,-49.488 -43.616,-100.854 -59.283,-153.471c-15.023,-50.455 -26.197,-102.05 -33.42,-154.196c-6.559,-47.359 -9.859,-95.164 -9.935,-142.974c-0.051,-32.402 1.375,-64.806 4.296,-97.075c3.068,-33.892 7.785,-67.635 14.144,-101.066c9.071,-47.697 21.486,-94.755 37.132,-140.717c16.1,-47.294 35.617,-93.422 58.335,-137.917c27.275,-53.419 59.16,-104.475 95.159,-152.45c36.14,-48.163 76.422,-93.213 120.249,-134.504c43.488,-40.972 90.462,-78.238 140.265,-111.248c48.381,-32.066 99.427,-60.108 152.455,-83.71c38.993,-17.355 79.054,-32.31 119.884,-44.743c39.851,-12.136 80.431,-21.869 121.45,-29.138c39.053,-6.92 78.5,-11.607 118.085,-14.056c14.505,-0.898 29.028,-1.496 43.558,-1.795c6.748,-0.139 13.498,-0.209 20.249,-0.225c1.127,-0.001 2.255,-0.001 3.382,0ZM1176.93,208.501c-6.796,0.016 -13.592,0.092 -20.386,0.243c-13.495,0.299 -26.983,0.876 -40.454,1.731c-36.737,2.331 -73.342,6.738 -109.578,13.218c-37.551,6.715 -74.702,15.656 -111.194,26.769c-37.884,11.536 -75.055,25.412 -111.235,41.515c-48.779,21.711 -95.749,47.47 -140.297,76.899c-45.896,30.32 -89.216,64.531 -129.364,102.132c-40.465,37.897 -77.704,79.234 -111.178,123.428c-33.616,44.382 -63.429,91.642 -88.973,141.113c-21.717,42.059 -40.345,85.711 -55.668,130.498c-14.416,42.136 -25.904,85.27 -34.362,128.993c-5.996,30.997 -10.471,62.287 -13.416,93.721c-2.856,30.475 -4.275,61.084 -4.275,91.692c0,44.933 3.062,89.867 9.227,134.376c6.702,48.388 17.07,96.265 31.01,143.083c14.397,48.352 32.6,95.565 54.372,141.074c24.902,52.052 54.466,101.865 88.194,148.681c34.405,47.756 73.133,92.39 115.549,133.195c42.443,40.831 88.573,77.824 137.664,110.36c51.482,34.121 106.214,63.337 163.241,87.059c26.987,11.226 54.482,21.229 82.376,29.96c33.954,10.629 68.498,19.374 103.418,26.185c31.484,6.141 63.272,10.713 95.209,13.706c30.476,2.855 61.084,4.274 91.693,4.274c30.609,0 61.217,-1.419 91.693,-4.274c31.936,-2.993 63.725,-7.565 95.208,-13.706c34.921,-6.811 69.465,-15.556 103.419,-26.185c27.894,-8.731 55.389,-18.734 82.375,-29.96c57.028,-23.722 111.76,-52.938 163.242,-87.059c49.091,-32.536 95.221,-69.529 137.664,-110.36c41.362,-39.791 79.22,-83.223 112.977,-129.642c15.493,-21.304 30.123,-43.234 43.84,-65.722c17.091,-28.019 32.763,-56.904 46.925,-86.511c10.847,-22.674 20.81,-45.77 29.857,-69.22c9.471,-24.548 17.934,-49.485 25.365,-74.725c13.66,-46.393 23.809,-93.814 30.37,-141.729c5.813,-42.456 8.801,-85.294 9.007,-128.146c0.171,-35.771 -1.596,-71.552 -5.328,-107.129c-2.972,-28.33 -7.188,-56.528 -12.641,-84.486c-9.188,-47.109 -21.9,-93.527 -37.996,-138.744c-14.544,-40.856 -31.85,-80.725 -51.746,-119.26c-25.543,-49.471 -55.356,-96.731 -88.972,-141.112c-33.474,-44.194 -70.713,-85.531 -111.178,-123.428c-39.792,-37.268 -82.7,-71.204 -128.144,-101.324c-44.91,-29.766 -92.293,-55.798 -141.517,-77.706c-36.18,-16.103 -73.351,-29.979 -111.236,-41.516c-36.975,-11.261 -74.629,-20.291 -112.688,-27.035c-36.257,-6.426 -72.88,-10.775 -109.631,-13.049c-13.477,-0.834 -26.971,-1.39 -40.47,-1.668c-6.274,-0.129 -12.548,-0.194 -18.823,-0.209c-1.048,-0.001 -2.096,-0.001 -3.145,0Z" style="fill:#707070;fill-rule:nonzero;"/><path d="M620.923,593.901c5.691,1.284 5.703,1.287 11.125,3.439l1097.72,537.896c1.689,0.999 3.46,1.868 5.065,2.996c3.219,2.263 6.062,5.019 8.425,8.166c2.362,3.147 4.215,6.646 5.489,10.369c1.274,3.723 1.954,7.623 2.016,11.558c0.061,3.935 -0.497,7.854 -1.654,11.615c-1.158,3.761 -2.9,7.317 -5.163,10.536c-2.263,3.219 -5.019,6.062 -8.166,8.425c-3.147,2.362 -6.646,4.215 -10.369,5.489c-3.723,1.274 -7.623,1.955 -11.558,2.016c-3.935,0.061 -7.854,-0.497 -11.615,-1.654c-1.875,-0.577 -3.648,-1.445 -5.471,-2.167l-1043.72,-511.435l0,1012.46l-0.462,5.866c-0.458,1.907 -0.767,3.856 -1.374,5.722c-1.216,3.742 -3.013,7.27 -5.326,10.454c-1.153,1.587 -2.435,3.087 -3.822,4.474c-2.782,2.783 -5.985,5.11 -9.491,6.897c-3.507,1.786 -7.272,3.01 -11.159,3.625c-3.886,0.616 -7.846,0.616 -11.732,0c-3.887,-0.615 -7.653,-1.839 -11.159,-3.625c-3.506,-1.787 -6.709,-4.114 -9.492,-6.897c-1.387,-1.387 -2.668,-2.887 -3.821,-4.474c-2.313,-3.184 -4.111,-6.712 -5.327,-10.454c-0.606,-1.866 -1.067,-3.785 -1.373,-5.722c-0.307,-1.937 -0.308,-3.911 -0.462,-5.866l0,-1072.59c0.402,-5.154 0.207,-6.537 1.808,-11.502c1.197,-3.717 2.968,-7.224 5.248,-10.394c2.28,-3.17 5.041,-5.965 8.184,-8.282c3.142,-2.318 6.628,-4.131 10.33,-5.374c4.946,-1.659 6.331,-1.481 11.479,-1.945c1.943,0.128 3.885,0.256 5.827,0.384Z" style="fill:#707070;fill-rule:nonzero;"/><g><path d="M1159.53,856.421l84.991,41.636l-544.058,269.092l1042.16,510.53l5.065,2.995c1.512,1.25 3.126,2.386 4.534,3.751c2.826,2.738 5.204,5.905 7.045,9.382c0.918,1.734 1.702,3.545 2.337,5.401c1.275,3.723 1.955,7.623 2.017,11.557c0.062,3.935 -0.496,7.855 -1.653,11.616c-1.157,3.761 -2.898,7.317 -5.161,10.536c-2.263,3.22 -5.018,6.063 -8.165,8.426c-1.568,1.178 -3.235,2.235 -4.968,3.153c-3.478,1.841 -7.224,3.124 -11.1,3.801c-3.877,0.676 -7.835,0.738 -11.731,0.184c-1.942,-0.276 -3.868,-0.707 -5.743,-1.283c-1.875,-0.577 -3.647,-1.445 -5.471,-2.167l-1110.58,-544.044c-1.709,-1.012 -3.503,-1.893 -5.126,-3.038c-3.255,-2.297 -6.124,-5.099 -8.498,-8.3c-2.373,-3.2 -4.222,-6.759 -5.475,-10.541c-1.254,-3.783 -1.896,-7.741 -1.904,-11.726c-0.008,-3.984 0.62,-7.945 1.859,-11.732c1.239,-3.787 3.074,-7.353 5.435,-10.563c2.362,-3.209 5.22,-6.022 8.467,-8.332c1.618,-1.151 3.409,-2.038 5.114,-3.057l560.604,-277.277ZM1244.36,814.463l452.288,-223.703c4.836,-1.936 5.999,-2.732 11.201,-3.492c1.941,-0.284 3.914,-0.261 5.871,-0.392c1.954,0.177 3.907,0.354 5.861,0.532c1.901,0.48 3.847,0.813 5.705,1.441c1.858,0.629 3.672,1.406 5.409,2.317c3.485,1.828 6.66,4.193 9.409,7.009c2.749,2.815 5.038,6.046 6.783,9.573c1.744,3.527 2.923,7.307 3.492,11.201c0.284,1.941 0.415,3.91 0.392,5.871c-0.047,3.935 -0.713,7.838 -1.974,11.566c-1.26,3.728 -3.099,7.234 -5.45,10.389c-2.351,3.156 -5.184,5.922 -8.395,8.197c-1.6,1.134 -3.369,2.01 -5.053,3.015l-400.547,198.111l-84.992,-41.635Z" style="fill:#707070;"/><path d="M1441.45,754.945c5.774,1.103 5.786,1.107 11.316,3.1l288.797,130.51c1.718,0.945 3.517,1.759 5.156,2.836c3.288,2.162 6.215,4.828 8.675,7.9c2.459,3.071 4.42,6.511 5.809,10.193c1.39,3.681 2.192,7.559 2.376,11.489c0.184,3.931 -0.252,7.866 -1.291,11.662c-1.04,3.795 -2.67,7.403 -4.832,10.691c-2.161,3.288 -4.827,6.216 -7.899,8.675c-3.072,2.46 -6.512,4.42 -10.193,5.81c-3.682,1.39 -7.559,2.191 -11.49,2.375c-3.931,0.185 -7.866,-0.251 -11.661,-1.291c-1.892,-0.518 -3.691,-1.33 -5.536,-1.995l-288.797,-130.51c-1.718,-0.946 -3.516,-1.759 -5.155,-2.837c-3.289,-2.161 -6.216,-4.827 -8.676,-7.899c-2.459,-3.072 -4.42,-6.511 -5.809,-10.193c-1.39,-3.681 -2.192,-7.559 -2.376,-11.49c-0.184,-3.93 0.252,-7.866 1.291,-11.661c1.04,-3.795 2.671,-7.403 4.832,-10.691c2.162,-3.289 4.827,-6.216 7.899,-8.676c3.072,-2.459 6.512,-4.42 10.193,-5.809c1.835,-0.693 3.731,-1.243 5.652,-1.64c1.92,-0.397 3.892,-0.491 5.838,-0.736c1.96,0.062 3.921,0.125 5.881,0.187Z" style="fill:#707070;fill-rule:nonzero;"/></g></g></svg>